# xmcd CD database file
#
# Track frame offsets:
#	150
#	24553
#	44235
#	68638
#
# Disc length: 1175 seconds
#
# Revision: 0
# Processed by: cddbd v1.5.1PL2 Copyright (c) Steve Scherf et al.
# Submitted via: CDex 1.51
#
DISCID=33049504
DTITLE=BRACE;d - Devotion
DYEAR=2006
DGENRE=Anime
TTITLE0=Devotion
TTITLE1=”missing”
TTITLE2=Devotion Original karaoke
TTITLE3=”missing” Original karaoke
EXTD=YEAR: 2006
EXTT0=
EXTT1=
EXTT2=
EXTT3=
PLAYORDER=
